<?xml version="1.0" encoding="UTF-8" standalone="no"?>
<!DOCTYPE svg PUBLIC "-//W3C//DTD SVG 1.1//EN" "http://www.w3.org/Graphics/SVG/1.1/DTD/svg11.dtd">
<svg width="100%" height="100%" viewBox="0 0 1730 478" version="1.1" xmlns="http://www.w3.org/2000/svg" xmlns:xlink="http://www.w3.org/1999/xlink" xml:space="preserve" xmlns:serif="http://www.serif.com/" style="fill-rule:evenodd;clip-rule:evenodd;stroke-linejoin:round;stroke-miterlimit:2;">
    <g transform="matrix(1,0,0,1,-98.408335,-301.070501)">
        <g id="_211D1D" serif:id="211D1D" transform="matrix(0.248885,0,0,0.242482,98.408335,301.070501)">
            <path d="M1920,114.244C1920,51.191 1870.126,0 1808.696,0L111.304,0C49.874,0 0,51.191 0,114.244L0,1856.459C0,1919.512 49.874,1970.702 111.304,1970.702L1808.696,1970.702C1870.126,1970.702 1920,1919.512 1920,1856.459L1920,114.244Z" style="fill:rgb(166,240,116);"/>
        </g>
        <g transform="matrix(0.420916,0,0,0.420916,-108.507774,114.755903)">
            <path d="M1452.045,1130.195C1450.556,1027.654 1456.614,893.274 1466.848,805.729C1476.469,723.431 1499.645,579.603 1438.81,601.512C1342.413,636.23 1119.257,1050.669 1012.074,1162.595C949.849,1227.573 873.462,1219.75 845.496,1185.218C696.122,1000.773 974.491,1020.086 1025.143,986.563C1126.04,919.789 895.395,879.176 880.182,847.209C869.432,824.62 890.372,801.349 933.866,794.762C1013.623,782.682 1069.417,804.745 1118.417,795.642C1206.674,779.246 1239.055,695.79 1255.023,663.518C1273.14,626.903 1228.502,604.536 1213.214,601.512C1147.126,588.443 1057.791,663.783 975.672,668.088C886.629,672.755 743.595,548.854 678.955,629.519C614.315,710.184 827.111,776.851 659.279,1118.055C617.447,1203.1 642.88,1360.735 717.105,1396.443C791.331,1432.15 980.665,1443.424 1104.632,1332.302C1177.936,1266.594 1334.093,856.585 1370.443,870.414C1398.365,881.037 1324.22,989.332 1223.578,1227.478C1201.29,1280.218 1160.666,1395.365 1169.103,1406.507C1180.759,1421.9 1244.401,1420.526 1319.226,1420.809C1384.895,1421.057 1444.092,1412.675 1467.071,1406.46C1491.15,1399.946 1453.462,1227.825 1452.045,1130.195Z" style="fill:rgb(33,29,29);"/>
        </g>
        <g transform="matrix(8.41031,0,0,8.41031,-8186.992377,-4605.84877)">
            <path d="M1079.213,597.575L1054.713,597.575C1054.413,597.575 1054.213,597.825 1054.213,598.075C1054.213,598.925 1056.713,601.125 1056.713,610.125L1056.713,617.025C1056.713,626.025 1054.213,628.225 1054.213,629.075C1054.213,629.325 1054.413,629.575 1054.713,629.575L1065.713,629.575C1066.013,629.575 1066.213,629.325 1066.213,629.075C1066.213,628.225 1063.713,626.025 1063.713,617.025L1063.713,614.075C1069.213,614.075 1071.413,618.175 1072.263,618.175C1072.513,618.175 1072.763,617.975 1072.763,617.675L1072.763,609.475C1072.763,609.175 1072.513,608.975 1072.263,608.975C1071.413,608.975 1069.213,613.075 1063.713,613.075L1063.713,598.575L1066.463,598.575C1076.113,598.575 1079.813,606.375 1081.213,606.375C1081.563,606.375 1081.663,606.175 1081.613,605.875L1080.213,598.575C1080.113,598.025 1079.813,597.575 1079.213,597.575Z" style="fill:white;fill-rule:nonzero;"/>
            <path d="M1090.763,593.325C1090.163,593.325 1089.413,594.775 1087.113,595.875C1085.513,596.625 1083.363,596.775 1082.763,596.775C1082.563,596.775 1082.363,596.925 1082.363,597.175C1082.363,597.975 1084.663,601.175 1084.663,606.975L1084.663,617.425C1084.663,626.125 1082.363,628.375 1082.363,629.175C1082.363,629.425 1082.563,629.575 1082.763,629.575L1093.063,629.575C1093.263,629.575 1093.463,629.425 1093.463,629.175C1093.463,628.375 1091.163,626.125 1091.163,617.425L1091.163,593.725C1091.163,593.525 1091.063,593.325 1090.763,593.325Z" style="fill:white;fill-rule:nonzero;"/>
            <path d="M1106.513,630.375C1114.363,630.375 1119.563,624.875 1119.563,617.075C1119.563,609.275 1114.363,603.775 1106.513,603.775C1098.663,603.775 1093.463,609.275 1093.463,617.075C1093.463,624.875 1098.663,630.375 1106.513,630.375ZM1100.363,617.075C1100.363,610.075 1103.063,604.575 1106.513,604.575C1109.963,604.575 1112.663,610.075 1112.663,617.075C1112.663,624.075 1109.963,629.575 1106.513,629.575C1103.063,629.575 1100.363,624.075 1100.363,617.075Z" style="fill:white;fill-rule:nonzero;"/>
            <path d="M1123.463,616.725L1123.713,617.425C1126.763,625.975 1127.813,629.575 1133.113,629.575L1136.213,629.575C1136.413,629.575 1136.613,629.425 1136.613,629.175C1136.613,628.425 1135.513,626.375 1137.613,618.725C1140.313,626.325 1141.563,629.575 1146.563,629.575L1149.663,629.575C1149.863,629.575 1150.063,629.425 1150.063,629.175C1150.063,628.375 1148.413,625.975 1151.463,617.425L1151.713,616.725C1154.663,608.475 1157.913,605.775 1157.913,604.975C1157.913,604.725 1157.713,604.575 1157.513,604.575L1152.863,604.575C1152.663,604.575 1152.463,604.725 1152.463,604.975C1152.463,605.775 1153.813,608.475 1150.863,616.725L1150.613,617.425C1148.813,622.525 1148.613,625.425 1148.763,627.125C1147.563,625.425 1145.763,622.525 1143.963,617.425L1143.713,616.725C1140.763,608.475 1142.163,605.775 1142.163,604.975C1142.163,604.725 1141.963,604.575 1141.763,604.575L1131.163,604.575C1130.963,604.575 1130.763,604.725 1130.763,604.975C1130.763,605.775 1133.963,608.475 1136.913,616.725L1137.163,617.425C1135.563,622.775 1135.363,625.675 1135.463,627.325C1134.263,625.625 1132.413,622.725 1130.513,617.425L1130.263,616.725C1127.313,608.475 1128.713,605.775 1128.713,604.975C1128.713,604.725 1128.513,604.575 1128.313,604.575L1117.713,604.575C1117.513,604.575 1117.313,604.725 1117.313,604.975C1117.313,605.775 1120.513,608.475 1123.463,616.725Z" style="fill:white;fill-rule:nonzero;"/>
            <path d="M1174.463,596.775C1164.913,596.775 1158.163,603.725 1158.163,613.575C1158.163,623.425 1164.913,630.375 1174.463,630.375C1184.013,630.375 1190.763,623.425 1190.763,613.575C1190.763,603.725 1184.013,596.775 1174.463,596.775ZM1174.463,629.375C1169.463,629.375 1165.563,622.425 1165.563,613.575C1165.563,604.725 1169.463,597.775 1174.463,597.775C1179.463,597.775 1183.363,604.725 1183.363,613.575C1183.363,622.425 1179.463,629.375 1174.463,629.375Z" style="fill:white;fill-rule:nonzero;"/>
        </g>
    </g>
</svg>
