<?xml version="1.0" encoding="UTF-8" standalone="no"?>
<!DOCTYPE svg PUBLIC "-//W3C//DTD SVG 1.1//EN" "http://www.w3.org/Graphics/SVG/1.1/DTD/svg11.dtd">
<svg width="100%" height="100%" viewBox="0 0 1920 1920" version="1.1" xmlns="http://www.w3.org/2000/svg" xmlns:xlink="http://www.w3.org/1999/xlink" xml:space="preserve" xmlns:serif="http://www.serif.com/" style="fill-rule:evenodd;clip-rule:evenodd;stroke-linejoin:round;stroke-miterlimit:2;">
    <g id="_211D1D" serif:id="211D1D" transform="matrix(0.935383,0,0,0.911318,62.031864,62.031864)">
        <path d="M1920,114.244C1920,51.191 1870.126,0 1808.696,0L111.304,0C49.874,0 0,51.191 0,114.244L0,1856.459C0,1919.512 49.874,1970.702 111.304,1970.702L1808.696,1970.702C1870.126,1970.702 1920,1919.512 1920,1856.459L1920,114.244Z" style="fill:rgb(166,240,116);"/>
    </g>
    <g transform="matrix(1.704034,0,0,1.704034,-844.959614,-761.556538)">
        <path d="M1452.045,1130.195C1450.556,1027.654 1456.614,893.274 1466.848,805.729C1476.469,723.431 1499.645,579.603 1438.81,601.512C1342.413,636.23 1119.257,1050.669 1012.074,1162.595C949.849,1227.573 873.462,1219.75 845.496,1185.218C696.122,1000.773 974.491,1020.086 1025.143,986.563C1126.04,919.789 895.395,879.176 880.182,847.209C869.432,824.62 890.372,801.349 933.866,794.762C1013.623,782.682 1069.417,804.745 1118.417,795.642C1206.674,779.246 1239.055,695.79 1255.023,663.518C1273.14,626.903 1228.502,604.536 1213.214,601.512C1147.126,588.443 1057.791,663.783 975.672,668.088C886.629,672.755 743.595,548.854 678.955,629.519C614.315,710.184 827.111,776.851 659.279,1118.055C617.447,1203.1 642.88,1360.735 717.105,1396.443C791.331,1432.15 980.665,1443.424 1104.632,1332.302C1177.936,1266.594 1334.093,856.585 1370.443,870.414C1398.365,881.037 1324.22,989.332 1223.578,1227.478C1201.29,1280.218 1160.666,1395.365 1169.103,1406.507C1180.759,1421.9 1244.401,1420.526 1319.226,1420.809C1384.895,1421.057 1444.092,1412.675 1467.071,1406.46C1491.15,1399.946 1453.462,1227.825 1452.045,1130.195Z" style="fill:rgb(33,29,29);"/>
    </g>
</svg>
